<?xml version="1.0" encoding="UTF-8"?>
<svg version="1.1" viewBox="0 0 24 24" xmlns="http://www.w3.org/2000/svg">
  <path d="m2.7193 3.5318c0.1283-1.4113 1.3116-2.492 2.7288-2.492h13.104c1.4172 0 2.6005 1.0806 2.7288 2.492l1.4945 16.44c0.14589 1.6046-1.1176 2.9881-2.7287 2.9881h-16.093c-1.6112 0-2.8747-1.3835-2.7288-2.9881z" clip-rule="evenodd" fill="#1b2c65" fill-rule="evenodd" stroke-width="2"/>
  <path d="m16.53 5.6066c0.015346 2.8482-1.379 5.1907-4.5801 5.1934-3.2685 0.002796-4.4799-2.5101-4.4799-5.1934" clip-rule="evenodd" fill="#1b2c65" fill-rule="evenodd" stroke="#f1ae09" stroke-linecap="round" stroke-linejoin="round" stroke-width="2"/>
  <path d="m5.533 19.548v-0.1473l0.14029-0.04209q0.14029-0.0491 0.18238-0.12626 0.049102-0.08417 0.049102-0.23148v-3.5423q0-0.1473-0.049102-0.22446-0.042087-0.08417-0.18238-0.13328l-0.14029-0.04209v-0.1473h1.7536v0.1473l-0.14029 0.04209q-0.13328 0.0491-0.18238 0.13328-0.049102 0.07716-0.049102 0.22446v3.5423q0 0.1473 0.049102 0.23148 0.049102 0.07716 0.18238 0.12626l0.14029 0.04209v0.1473zm2.0763 0v-0.1473l0.14029-0.03507q0.14029-0.04209 0.18238-0.12626 0.042087-0.08417 0.042087-0.23148 0.00701-0.39983 0.00701-0.80667 0-0.41386 0-0.82771v-0.2876q0-0.40684 0-0.81368t-0.00701-0.81368q0-0.1473-0.049102-0.22446-0.042087-0.08417-0.18238-0.13328l-0.13328-0.042089v-0.1473h1.6905q1.0241 0 1.4871 0.3858 0.46997 0.37878 0.46997 1.0031 0 0.39281-0.19641 0.72951-0.18939 0.32968-0.63131 0.52609-0.44191 0.19641-1.1925 0.19641h-0.25252q0 0.29461 0 0.61026 0 0.30864 0.00701 0.63131 0 0.2876 0.25954 0.35073l0.21044 0.05612v0.1473zm1.3748-1.9991h0.29461q0.35073 0 0.56818-0.10522 0.22446-0.11223 0.32968-0.37878 0.11223-0.26655 0.11223-0.73652 0-0.46997-0.11925-0.72951-0.11223-0.26655-0.34371-0.37177-0.23148-0.11223-0.57519-0.11223h-0.25954q-0.00701 0.484-0.00701 0.98203 0 0.49102 0 0.98905zm2.4902 1.9991v-0.1473l0.14029-0.04209q0.1473-0.0491 0.18939-0.12626 0.04209-0.08417 0.04209-0.23148v-3.5493q0-0.14029-0.04209-0.21745-0.04209-0.08417-0.18238-0.13328l-0.1473-0.04209v-0.1473h1.7396v0.1473l-0.13328 0.04209q-0.13328 0.0491-0.18238 0.13328-0.04209 0.08417-0.04209 0.23148v3.872h1.0311q0.23849 0 0.35774-0.11925 0.11925-0.11925 0.22446-0.34371l0.25954-0.5822h0.19641l-0.07015 1.2556zm5.2118 0.11925q-0.3858 0-0.78563-0.0982-0.39281-0.09119-0.65936-0.24551l0.04209-0.97502h0.20342l0.21745 0.484q0.0982 0.20342 0.20342 0.3367 0.10522 0.13328 0.28058 0.20342 0.11925 0.0491 0.22446 0.07015 0.11223 0.01403 0.24551 0.01403 0.42788 0 0.67339-0.21745 0.25252-0.22446 0.25252-0.58922 0-0.32968-0.17536-0.51907-0.16835-0.18939-0.54713-0.36475l-0.2876-0.12626q-0.58922-0.25954-0.93293-0.60325-0.3367-0.34371-0.3367-0.91189 0-0.42087 0.21044-0.71548 0.21745-0.30162 0.59623-0.46296t0.88383-0.16133q0.37177 0 0.69444 0.0982 0.32968 0.0982 0.57519 0.26655l-0.0491 0.8698h-0.20342l-0.25954-0.52609q-0.11223-0.23148-0.21745-0.32968-0.0982-0.10522-0.24551-0.13328-0.08417-0.01403-0.1473-0.02104-0.05612-0.0071-0.15432-0.0071-0.34371 0-0.59623 0.20342-0.24551 0.19641-0.24551 0.54713 0 0.3367 0.18939 0.54713 0.18939 0.21044 0.54713 0.37177l0.31565 0.13328q0.68041 0.29461 0.97502 0.63131 0.29461 0.32968 0.29461 0.84876 0 0.61728-0.46997 1.0031-0.46296 0.37878-1.3117 0.37878z" fill="#fff" stroke-width=".036534" aria-label="IPLS"/>
</svg>
