<?xml version="1.0" encoding="UTF-8" standalone="no"?>
<!-- Uploaded to: SVG Repo, www.svgrepo.com, Generator: SVG Repo Mixer Tools -->

<svg
   width="800px"
   height="800px"
   viewBox="0 0 24 24"
   fill="none"
   version="1.1"
   id="svg1"
   xmlns="http://www.w3.org/2000/svg"
   xmlns:svg="http://www.w3.org/2000/svg">
  <defs
     id="defs1" />
  <path
     fill-rule="evenodd"
     clip-rule="evenodd"
     d="M4.37879 5.0463C4.48414 3.88737 5.45584 3 6.61955 3H17.3799C18.5436 3 19.5153 3.88737 19.6207 5.04629L20.8479 18.5463C20.9677 19.8639 19.9302 21 18.6072 21H5.39227C4.0692 21 3.03173 19.8639 3.15151 18.5463L4.37879 5.0463ZM11.9996 12C9.51435 12 7.49963 9.98528 7.49963 7.5V6.75C7.49963 6.33579 7.83542 6 8.24963 6C8.66385 6 8.99963 6.33579 8.99963 6.75V7.5C8.99963 9.15685 10.3428 10.5 11.9996 10.5C13.6565 10.5 14.9996 9.15685 14.9996 7.5V6.75C14.9996 6.33579 15.3354 6 15.7496 6C16.1638 6 16.4996 6.33579 16.4996 6.75V7.5C16.4996 9.98528 14.4849 12 11.9996 12Z"
     fill="#3A52EE"
     id="path1"
     style="fill:#1b2c65;fill-opacity:1" />
  <text
     xml:space="preserve"
     style="font-size:5.76px;font-family:'Times New Roman';-inkscape-font-specification:'Times New Roman, ';text-align:start;writing-mode:lr-tb;direction:ltr;text-anchor:start;fill:#1b2c65;fill-opacity:1;stroke-width:0.03"
     x="6.5567961"
     y="18.198368"
     id="text1"><tspan
       id="tspan1"
       style="font-style:normal;font-variant:normal;font-weight:normal;font-stretch:normal;font-family:'DM Serif Text';-inkscape-font-specification:'DM Serif Text';fill:#ffffff;stroke-width:0.03"
       x="6.5567961"
       y="18.198368">IPLS</tspan></text>
  <path
     style="fill:#e4b221;fill-opacity:1;stroke-width:0.76964"
     d="m 386.3593,398.9719 c -10.45983,-0.97863 -22.81243,-3.58816 -33.05971,-6.98399 -55.57967,-18.41844 -95.32436,-67.40537 -101.97838,-125.69246 -0.43491,-3.80972 -0.79359,-15.6588 -0.79706,-26.3313 -0.007,-22.62284 0.504,-25.01786 6.76555,-31.68719 5.18444,-5.52207 9.69448,-7.38669 17.85661,-7.3826 5.57828,0.003 7.1088,0.30217 10.39014,2.03233 5.20495,2.74442 9.4248,7.09228 11.82889,12.1877 1.96801,4.17115 2.00458,4.57051 2.50159,27.32222 0.46626,21.34375 0.65466,23.6821 2.49208,30.9322 9.79197,38.63698 38.95954,66.80338 77.66333,74.99751 10.34714,2.19064 27.74704,2.36143 37.86428,0.37167 36.89054,-7.25526 65.63645,-32.19245 77.29432,-67.05311 3.87181,-11.5779 4.77718,-18.73649 5.35323,-42.32683 l 0.52623,-21.54992 2.27061,-4.12174 c 8.44165,-15.32371 28.2346,-17.69127 39.85443,-4.76723 5.23283,5.82016 6.09463,8.98826 6.52695,23.99385 0.72589,25.19528 -1.85958,46.3003 -7.88004,64.32446 -21.90087,65.5672 -86.96753,108.14383 -155.47305,101.73443 z"
     id="path2"
     transform="scale(0.03)" />
</svg>
