<svg
   width="24px"
   height="24px"
   viewBox="0 0 24 24"
   fill="none"
   version="1.1"
   id="svg1"
   xmlns="http://www.w3.org/2000/svg"
   xmlns:svg="http://www.w3.org/2000/svg">
  <path
     fill-rule="evenodd"
     clip-rule="evenodd"
     d="M4.37879 5.0463C4.48414 3.88737 5.45584 3 6.61955 3H17.3799C18.5436 3 19.5153 3.88737 19.6207 5.04629L20.8479 18.5463C20.9677 19.8639 19.9302 21 18.6072 21H5.39227C4.0692 21 3.03173 19.8639 3.15151 18.5463L4.37879 5.0463ZM11.9996 12C9.51435 12 7.49963 9.98528 7.49963 7.5V6.75C7.49963 6.33579 7.83542 6 8.24963 6C8.66385 6 8.99963 6.33579 8.99963 6.75V7.5C8.99963 9.15685 10.3428 10.5 11.9996 10.5C13.6565 10.5 14.9996 9.15685 14.9996 7.5V6.75C14.9996 6.33579 15.3354 6 15.7496 6C16.1638 6 16.4996 6.33579 16.4996 6.75V7.5C16.4996 9.98528 14.4849 12 11.9996 12Z"
     fill="#3A52EE"
     id="path1"
     style="fill:#1b2c65;fill-opacity:1" />
  <path
     style="font-size:5.76px;font-family:'DM Serif Text';-inkscape-font-specification:'DM Serif Text';fill:#ffffff;stroke-width:0.03"
     d="m 6.6892761,18.198368 v -0.12096 l 0.1152,-0.03456 q 0.1152,-0.04032 0.14976,-0.10368 0.04032,-0.06912 0.04032,-0.19008 v -2.9088 q 0,-0.12096 -0.04032,-0.18432 -0.03456,-0.06912 -0.14976,-0.10944 l -0.1152,-0.03456 v -0.12096 h 1.44 v 0.12096 l -0.1152,0.03456 q -0.10944,0.04032 -0.14976,0.10944 -0.04032,0.06336 -0.04032,0.18432 v 2.9088 q 0,0.12096 0.04032,0.19008 0.04032,0.06336 0.14976,0.10368 l 0.1152,0.03456 v 0.12096 z m 1.7049573,0 v -0.12096 l 0.1152,-0.0288 q 0.1152001,-0.03456 0.1497601,-0.10368 0.03456,-0.06912 0.03456,-0.19008 0.00576,-0.32832 0.00576,-0.6624 0,-0.33984 0,-0.67968 v -0.23616 q 0,-0.33408 0,-0.66816 0,-0.33408 -0.00576,-0.66816 0,-0.12096 -0.04032,-0.18432 -0.03456,-0.06912 -0.1497601,-0.10944 l -0.10944,-0.03456 v -0.12096 h 1.3881601 q 0.8409605,0 1.2211205,0.3168 0.38592,0.31104 0.38592,0.82368 0,0.32256 -0.16128,0.59904 -0.15552,0.27072 -0.5184,0.432 -0.36288,0.16128 -0.9792005,0.16128 h -0.20736 q 0,0.24192 0,0.50112 0,0.25344 0.00576,0.5184 0,0.23616 0.21312,0.288 l 0.1728,0.04608 v 0.12096 z m 1.1289601,-1.6416 h 0.24192 q 0.2880005,0 0.4665605,-0.0864 0.18432,-0.09216 0.27072,-0.31104 0.09216,-0.21888 0.09216,-0.6048 0,-0.38592 -0.09792,-0.59904 -0.09216,-0.21888 -0.28224,-0.30528 -0.19008,-0.09216 -0.4723205,-0.09216 h -0.21312 q -0.00576,0.39744 -0.00576,0.8064 0,0.4032 0,0.81216 z m 2.0448035,1.6416 v -0.12096 l 0.1152,-0.03456 q 0.12096,-0.04032 0.15552,-0.10368 0.03456,-0.06912 0.03456,-0.19008 v -2.91456 q 0,-0.1152 -0.03456,-0.17856 -0.03456,-0.06912 -0.14976,-0.10944 l -0.12096,-0.03456 v -0.12096 h 1.42848 v 0.12096 l -0.10944,0.03456 q -0.10944,0.04032 -0.14976,0.10944 -0.03456,0.06912 -0.03456,0.19008 v 3.17952 h 0.84672 q 0.19584,0 0.29376,-0.09792 0.09792,-0.09792 0.18432,-0.28224 l 0.21312,-0.47808 h 0.16128 l -0.0576,1.03104 z m 4.279684,0.09792 q -0.3168,0 -0.64512,-0.08064 -0.32256,-0.07488 -0.54144,-0.2016 l 0.03456,-0.80064 h 0.16704 l 0.17856,0.39744 q 0.08064,0.16704 0.16704,0.27648 0.0864,0.10944 0.2304,0.16704 0.09792,0.04032 0.18432,0.0576 0.09216,0.01152 0.2016,0.01152 0.35136,0 0.55296,-0.17856 0.20736,-0.18432 0.20736,-0.48384 0,-0.27072 -0.144,-0.42624 -0.13824,-0.15552 -0.44928,-0.29952 l -0.23616,-0.10368 q -0.48384,-0.21312 -0.76608,-0.49536 -0.27648,-0.28224 -0.27648,-0.7488 0,-0.3456 0.1728,-0.58752 0.17856,-0.24768 0.4896,-0.38016 0.31104,-0.13248 0.72576,-0.13248 0.30528,0 0.57024,0.08064 0.27072,0.08064 0.47232,0.21888 l -0.04032,0.71424 h -0.16704 l -0.21312,-0.432 q -0.09216,-0.19008 -0.17856,-0.27072 -0.08064,-0.0864 -0.2016,-0.10944 -0.06912,-0.01152 -0.12096,-0.01728 -0.04608,-0.0058 -0.12672,-0.0058 -0.28224,0 -0.4896,0.16704 -0.2016,0.16128 -0.2016,0.44928 0,0.27648 0.15552,0.44928 0.15552,0.1728 0.44928,0.30528 l 0.2592,0.10944 q 0.55872,0.24192 0.80064,0.5184 0.24192,0.27072 0.24192,0.69696 0,0.50688 -0.38592,0.82368 -0.38016,0.31104 -1.07712,0.31104 z"
     id="text1"
     aria-label="IPLS" />
  <path
     style="fill:#e4b221;fill-opacity:1;stroke-width:0.76964"
     d="m 386.3593,398.9719 c -10.45983,-0.97863 -22.81243,-3.58816 -33.05971,-6.98399 -55.57967,-18.41844 -95.32436,-67.40537 -101.97838,-125.69246 -0.43491,-3.80972 -0.79359,-15.6588 -0.79706,-26.3313 -0.007,-22.62284 0.504,-25.01786 6.76555,-31.68719 5.18444,-5.52207 9.69448,-7.38669 17.85661,-7.3826 5.57828,0.003 7.1088,0.30217 10.39014,2.03233 5.20495,2.74442 9.4248,7.09228 11.82889,12.1877 1.96801,4.17115 2.00458,4.57051 2.50159,27.32222 0.46626,21.34375 0.65466,23.6821 2.49208,30.9322 9.79197,38.63698 38.95954,66.80338 77.66333,74.99751 10.34714,2.19064 27.74704,2.36143 37.86428,0.37167 36.89054,-7.25526 65.63645,-32.19245 77.29432,-67.05311 3.87181,-11.5779 4.77718,-18.73649 5.35323,-42.32683 l 0.52623,-21.54992 2.27061,-4.12174 c 8.44165,-15.32371 28.2346,-17.69127 39.85443,-4.76723 5.23283,5.82016 6.09463,8.98826 6.52695,23.99385 0.72589,25.19528 -1.85958,46.3003 -7.88004,64.32446 -21.90087,65.5672 -86.96753,108.14383 -155.47305,101.73443 z"
     id="path2"
     transform="scale(0.03)" />
</svg>
